<svg width="1247" height="1145" viewBox="0 0 1336.00 234.00" xmlns="http://www.w3.org/2000/svg" xmlns:xlink="http://www.w3.org/1999/xlink">
<g id="graph0" class="graph" transform="translate(4,230) scale(1)">
<title>G</title>
<polygon fill="white" stroke="transparent" points="-4,4 -4,-230 1332,-230 1332,4 -4,4"/>
<!-- 0 -->
<g id="node1" class="node">
<title>0</title>
<ellipse fill="none" stroke="black" cx="233.58" cy="-73.38" rx="233.37" ry="41.09"/>
<text text-anchor="middle" x="233.58" y="-85.98" font-family="Times,serif" font-size="14.00">integration.endpoint.CustomerEndpoint.deleteCustomer</text>
<text text-anchor="middle" x="233.58" y="-69.18" font-family="Times,serif" font-size="14.00">sales/customers/{customerId}</text>
<text text-anchor="middle" x="233.58" y="-52.38" font-family="Times,serif" font-size="14.00">DELETE</text>
</g>
<!-- application -->
<g id="node5" class="node">
<title>application</title>
<ellipse fill="none" stroke="black" cx="667.47" cy="-109.52" rx="53.88" ry="18"/>
<text text-anchor="middle" x="667.47" y="-105.32" font-family="Times,serif" font-size="14.00">application</text>
</g>
<!-- 0&#45;&gt;application -->
<g id="edge1" class="edge">
<title>0-&gt;application</title>
<path fill="none" stroke="black" d="M444.8,-90.97C503.14,-95.83 562.03,-100.74 604.58,-104.28"/>
<polygon fill="black" stroke="black" points="604.51,-107.79 614.76,-105.13 605.09,-100.81 604.51,-107.79"/>
</g>
<!-- 1 -->
<g id="node2" class="node">
<title>1</title>
<ellipse fill="none" stroke="black" cx="1095.28" cy="-149.74" rx="233.36" ry="41.09"/>
<text text-anchor="middle" x="1095.28" y="-162.34" font-family="Times,serif" font-size="14.00">integration.endpoint.CustomerEndpoint.createCustomer</text>
<text text-anchor="middle" x="1095.28" y="-145.54" font-family="Times,serif" font-size="14.00">sales/customers</text>
<text text-anchor="middle" x="1095.28" y="-128.74" font-family="Times,serif" font-size="14.00">POST</text>
</g>
<!-- 1&#45;&gt;application -->
<g id="edge2" class="edge">
<title>1-&gt;application</title>
<path fill="none" stroke="black" d="M889.2,-130.37C831.12,-124.91 772.26,-119.37 729.8,-115.38"/>
<polygon fill="black" stroke="black" points="729.92,-111.88 719.64,-114.42 729.27,-118.84 729.92,-111.88"/>
</g>
<!-- 2 -->
<g id="node3" class="node">
<title>2</title>
<ellipse fill="none" stroke="black" cx="708.09" cy="-41.68" rx="226.68" ry="41.09"/>
<text text-anchor="middle" x="708.09" y="-54.28" font-family="Times,serif" font-size="14.00">integration.endpoint.CustomerEndpoint.readCustomer</text>
<text text-anchor="middle" x="708.09" y="-37.48" font-family="Times,serif" font-size="14.00">sales/customers/{customerId}</text>
<text text-anchor="middle" x="708.09" y="-20.68" font-family="Times,serif" font-size="14.00">GET</text>
</g>
<!-- 2&#45;&gt;application -->
<g id="edge3" class="edge">
<title>2-&gt;application</title>
<path fill="none" stroke="black" d="M683.29,-83.1C683.23,-83.19 683.18,-83.28 683.12,-83.38"/>
<polygon fill="black" stroke="black" points="680.28,-81.31 678.14,-91.69 686.28,-84.91 680.28,-81.31"/>
</g>
<!-- 3 -->
<g id="node4" class="node">
<title>3</title>
<ellipse fill="none" stroke="black" cx="610.28" cy="-184.42" rx="235.88" ry="41.09"/>
<text text-anchor="middle" x="610.28" y="-197.02" font-family="Times,serif" font-size="14.00">integration.endpoint.CustomerEndpoint.updateCustomer</text>
<text text-anchor="middle" x="610.28" y="-180.22" font-family="Times,serif" font-size="14.00">sales/customers/{customerId}</text>
<text text-anchor="middle" x="610.28" y="-163.42" font-family="Times,serif" font-size="14.00">PUT</text>
</g>
<!-- 3&#45;&gt;application -->
<g id="edge4" class="edge">
<title>3-&gt;application</title>
<path fill="none" stroke="black" d="M641.55,-143.46C643.67,-140.68 645.78,-137.93 647.81,-135.26"/>
<polygon fill="black" stroke="black" points="650.74,-137.2 654.02,-127.13 645.17,-132.95 650.74,-137.2"/>
</g>
</g>
</svg>